<?xml version="1.0" encoding="iso-8859-1"?>
<!-- Generator: Adobe Illustrator 19.0.0, SVG Export Plug-In . SVG Version: 6.00 Build 0)  -->
<svg version="1.1" id="Layer_1" xmlns="http://www.w3.org/2000/svg" xmlns:xlink="http://www.w3.org/1999/xlink" x="0px" y="0px"
	 viewBox="0 0 512 512" style="enable-background:new 0 0 512 512;" xml:space="preserve">
<g>
	<g>
		<path d="M469.333,152.875v-40.533c0-26.645-21.696-48.341-48.341-48.341H261.035l-85.333-42.667H91.008
			c-26.645,0-48.341,21.696-48.341,48.341v83.179C17.963,161.195,0,184.341,0,211.84v216.341c0,34.453,28.011,62.485,62.485,62.485
			h387.008c34.475,0,62.507-28.032,62.507-62.485V211.84C512,184.341,494.037,161.216,469.333,152.875z M426.667,149.333H85.333
			V69.675c0-3.115,2.539-5.675,5.675-5.675h74.624l85.333,42.667h170.027c3.136,0,5.675,2.56,5.675,5.675V149.333z"/>
	</g>
</g>
<g>
</g>
<g>
</g>
<g>
</g>
<g>
</g>
<g>
</g>
<g>
</g>
<g>
</g>
<g>
</g>
<g>
</g>
<g>
</g>
<g>
</g>
<g>
</g>
<g>
</g>
<g>
</g>
<g>
</g>
</svg>
